<?xml version="1.0" standalone="no"?>
<!DOCTYPE svg PUBLIC "-//W3C//DTD SVG 20010904//EN"
 "http://www.w3.org/TR/2001/REC-SVG-20010904/DTD/svg10.dtd">
<svg version="1.0" xmlns="http://www.w3.org/2000/svg"
 width="512.000000pt" height="512.000000pt" viewBox="0 0 512.000000 512.000000"
 preserveAspectRatio="xMidYMid meet">
<metadata>
Created by potrace 1.11, written by Peter Selinger 2001-2013
</metadata>
<g transform="translate(0.000000,512.000000) scale(0.100000,-0.100000)"
fill="#000000" stroke="none">
<path d="M0 2560 l0 -2560 2560 0 2560 0 0 2560 0 2560 -2560 0 -2560 0 0
-2560z m1425 1842 c28 -4 74 -21 102 -37 29 -17 86 -49 127 -72 81 -46 161
-120 203 -186 28 -45 103 -250 103 -284 0 -12 9 -43 21 -70 27 -61 71 -315 72
-413 0 -71 -29 -185 -55 -215 -4 -5 -8 -16 -8 -25 0 -8 -17 -38 -37 -66 -21
-28 -55 -74 -76 -102 -21 -28 -57 -62 -80 -75 -23 -14 -68 -45 -100 -70 -39
-30 -98 -61 -175 -91 -155 -60 -189 -68 -302 -69 -102 -2 -118 4 -240 83 -25
16 -65 39 -90 52 -100 51 -245 218 -279 321 -7 20 -16 39 -21 42 -5 3 -16 28
-25 56 -10 28 -28 70 -41 92 -13 23 -26 62 -30 87 -3 25 -12 62 -20 83 -24 64
-18 206 12 301 97 297 155 384 332 502 86 57 240 134 270 134 9 1 51 9 92 20
75 19 133 20 245 2z m1886 -856 c57 -18 127 -39 154 -46 112 -26 155 -72 155
-163 0 -67 -9 -91 -62 -173 -33 -52 -53 -71 -112 -105 -61 -36 -82 -42 -151
-48 -77 -7 -79 -7 -44 -18 20 -6 48 -8 63 -6 15 3 46 -2 70 -11 42 -16 47 -16
98 1 29 10 79 18 110 18 52 0 61 -3 90 -33 28 -28 33 -39 33 -82 0 -66 -32
-99 -122 -127 -99 -32 -152 -37 -250 -24 -136 18 -182 30 -268 72 -143 69
-167 88 -202 159 -18 35 -33 78 -33 95 0 29 -1 29 -57 -34 -47 -53 -73 -71
-141 -103 -45 -21 -94 -38 -107 -38 -14 0 -25 -3 -25 -8 0 -9 -91 -42 -119
-42 -20 0 -20 -3 -15 -157 10 -248 -15 -362 -92 -422 -39 -31 -104 -28 -143 5
-54 45 -59 110 -16 194 16 31 17 54 12 200 -5 129 -10 177 -26 221 -42 118
-45 388 -6 495 28 76 94 110 226 119 42 2 88 9 103 15 117 44 345 -47 405
-163 28 -56 29 -55 82 72 38 92 67 127 131 160 56 29 118 23 259 -23z m604 -7
c19 -17 35 -37 35 -45 0 -17 0 -17 68 2 125 37 267 -9 397 -128 75 -69 83 -82
120 -197 23 -71 26 -94 21 -159 -3 -43 -8 -115 -11 -162 -7 -98 -25 -137 -75
-163 -53 -27 -107 -17 -148 27 l-32 36 6 113 c3 61 10 125 15 140 5 19 4 46
-6 83 -23 88 -42 112 -122 151 l-73 36 -57 -29 c-38 -19 -57 -34 -55 -44 23
-97 33 -160 38 -235 7 -109 -9 -149 -69 -179 -51 -25 -97 -15 -135 28 -24 28
-30 45 -36 107 -12 123 -26 199 -58 299 -27 87 -29 103 -23 180 8 96 23 133
63 154 46 26 97 20 137 -15z m-1147 -1456 c62 -46 67 -63 64 -204 -1 -71 -7
-141 -12 -155 -14 -37 -13 -270 2 -297 17 -32 23 -229 9 -296 -17 -77 -60
-199 -87 -241 -61 -100 -187 -200 -250 -200 -12 0 -24 -6 -27 -14 -8 -20 -144
-74 -219 -86 -53 -8 -80 -7 -134 6 -84 19 -109 32 -156 81 -39 40 -108 163
-108 192 0 9 -11 38 -24 64 -31 60 -41 140 -26 195 23 87 103 142 186 126 60
-11 124 -80 124 -134 0 -11 11 -42 25 -68 14 -26 28 -63 31 -82 4 -19 11 -40
16 -47 15 -19 63 -6 163 44 112 55 127 75 164 219 15 57 14 102 -5 175 -17 66
-15 266 4 509 11 139 43 201 122 233 28 12 111 0 138 -20z"/>
<path d="M1213 4155 c-107 -21 -204 -65 -283 -128 -119 -95 -163 -175 -217
-399 -14 -58 -14 -76 -3 -125 17 -77 68 -213 106 -285 8 -14 14 -33 14 -40 0
-39 116 -168 187 -207 32 -18 87 -50 123 -71 55 -34 71 -39 105 -34 48 7 112
28 179 60 28 13 59 24 69 24 11 0 40 17 66 38 25 21 62 48 81 60 74 44 196
273 172 319 -6 10 -13 45 -17 78 -20 168 -119 509 -163 559 -27 32 -55 55 -76
62 -11 4 -52 26 -91 49 -84 49 -153 60 -252 40z"/>
<path d="M3152 3327 c-5 -7 -12 -24 -16 -38 -7 -32 9 -39 96 -39 94 0 113 16
51 43 -98 40 -121 46 -131 34z"/>
<path d="M2413 3247 l-83 -10 -6 -34 c-6 -33 2 -128 12 -145 3 -5 11 -5 17 0
7 5 57 26 112 48 73 27 108 47 132 73 17 19 30 38 28 42 -10 15 -75 39 -102
37 -15 -1 -65 -6 -110 -11z"/>
</g>
</svg>
